<svg height="512pt" viewBox="0 -16 512.032 512" width="512pt" xmlns="http://www.w3.org/2000/svg"><path d="m143.800781 439.984375h224c26.472657-.007813 48-21.535156 48-48.007813v-287.976562h-16c0 17.609375-14.296875 31.9375-31.90625 32-.03125 0-.0625-.015625-.09375-.015625h-232c-25.046875 0-40 11.953125-40 32v224c0 22.054687 25.933594 48 48 48zm0 0" fill="#967adc"/><path d="m375.800781 424.015625v-64h-232c-.03125 0-.066406-.015625-.113281-.015625-17.589844.0625-31.886719 14.382812-31.886719 32v.015625c0 17.648437 14.359375 32 32.015625 32zm0 0" fill="#e6e9ed"/><path d="m375.800781 56.015625h-232.015625c-26.472656.007813-47.984375 21.535156-47.984375 48v287.984375h16c0-17.617188 14.296875-31.9375 31.886719-32 .046875 0 .082031.015625.113281.015625h232c25.046875 0 40-11.960937 40-32v-232c0-22.0625-17.953125-40-40-40zm0 0" fill="#ac92ec"/><path d="m287.800781 192.015625c8.800781 0 16 7.199219 16 16s-7.199219 16-16 16-16-7.199219-16-16 7.199219-16 16-16zm0 0" fill="#ffce54"/><path d="m287.800781 224.015625c8.800781 0 16-7.199219 16-16s-7.199219-16-16-16-16 7.199219-16 16 7.199219 16 16 16zm33.917969-49.917969c8.722656 8.636719 14.082031 20.636719 14.082031 33.917969s-5.359375 25.28125-14.082031 33.921875c-8.640625 8.71875-20.640625 14.078125-33.917969 14.078125-13.28125 0-25.28125-5.359375-33.921875-14.078125-8.71875-8.640625-14.078125-20.640625-14.078125-33.921875s5.359375-25.28125 14.078125-33.917969c8.640625-8.722656 20.640625-14.082031 33.921875-14.082031 13.277344 0 25.277344 5.359375 33.917969 14.082031zm0 0" fill="#f6bb42"/><path d="m335.800781 208.015625c0-13.28125-5.359375-25.28125-14.082031-33.917969-8.640625-8.722656-20.640625-14.082031-33.917969-14.082031-13.28125 0-25.28125 5.359375-33.921875 14.082031-8.71875 8.636719-14.078125 20.636719-14.078125 33.917969s5.359375 25.28125 14.078125 33.921875c8.640625 8.71875 20.640625 14.078125 33.921875 14.078125 13.277344 0 25.277344-5.359375 33.917969-14.078125 8.722656-8.640625 14.082031-20.640625 14.082031-33.921875zm-48-80c44.160157 0 80 35.839844 80 80s-35.839843 80-80 80c-44.160156 0-80-35.839844-80-80s35.839844-80 80-80zm0 0" fill="#ffce54"/><path d="m167.800781 56.015625h-24.015625c-26.472656.007813-47.984375 21.535156-47.984375 48v287.984375h16c0-17.617188 14.296875-31.9375 31.886719-32 .046875 0 .082031.015625.113281.015625h24zm0 0" fill="#656d78"/><path d="m239.800781 400.015625h-64c-4.425781 0-8-3.574219-8-8 0-4.421875 3.574219-8 8-8h64c4.421875 0 8 3.578125 8 8 0 4.425781-3.585937 8-8 8zm0 0" fill="#ccd1d9"/><g fill="#f6bb42"><path d="m287.800781 272.015625c-4.425781 0-8-3.574219-8-8v-16c0-4.421875 3.574219-8 8-8 4.421875 0 8 3.578125 8 8v16c0 4.425781-3.585937 8-8 8zm0 0"/><path d="m287.800781 176.015625c-4.425781 0-8-3.574219-8-8v-16c0-4.414063 3.574219-8 8-8 4.421875 0 8 3.585937 8 8v16c0 4.425781-3.585937 8-8 8zm0 0"/><path d="m327.390625 255.609375c-2.046875 0-4.09375-.777344-5.65625-2.335937l-11.308594-11.320313c-3.128906-3.128906-3.128906-8.183594 0-11.3125 3.125-3.128906 8.183594-3.128906 11.308594 0l11.3125 11.3125c3.128906 3.125 3.128906 8.191406 0 11.320313-1.558594 1.566406-3.605469 2.335937-5.65625 2.335937zm0 0"/><path d="m259.519531 187.734375c-2.046875 0-4.09375-.78125-5.65625-2.34375l-11.3125-11.3125c-3.125-3.125-3.125-8.191406 0-11.316406 3.128907-3.121094 8.183594-3.121094 11.3125.007812l11.3125 11.308594c3.128907 3.128906 3.128907 8.195313 0 11.320313-1.566406 1.554687-3.617187 2.335937-5.65625 2.335937zm0 0"/><path d="m343.800781 216.03125h-16c-4.425781 0-8-3.582031-8-8 0-4.421875 3.574219-8 8-8h16c4.421875 0 8 3.578125 8 8 0 4.417969-3.585937 8-8 8zm0 0"/><path d="m247.800781 216.03125h-.015625l-16-.015625c-4.410156 0-7.984375-3.574219-7.984375-8 0-4.421875 3.574219-8 8-8l16 .015625c4.421875 0 8 3.578125 8 8 0 4.425781-3.601562 8-8 8zm0 0"/><path d="m316.078125 187.753906c-2.046875 0-4.09375-.785156-5.652344-2.347656-3.128906-3.125-3.128906-8.183594 0-11.308594l11.308594-11.328125c3.128906-3.128906 8.1875-3.128906 11.3125 0 3.128906 3.125 3.128906 8.183594 0 11.308594l-11.3125 11.328125c-1.558594 1.5625-3.605469 2.347656-5.65625 2.347656zm0 0"/><path d="m248.183594 255.617188c-2.046875 0-4.09375-.785157-5.65625-2.34375-3.128906-3.128907-3.128906-8.183594 0-11.3125l11.328125-11.3125c3.128906-3.121094 8.183593-3.121094 11.3125.007812 3.128906 3.128906 3.128906 8.183594 0 11.3125l-11.328125 11.3125c-1.558594 1.566406-3.609375 2.335938-5.65625 2.335938zm0 0"/></g><path d="m495.800781 40.015625v-8c0-4.421875-3.578125-8-8-8-4.425781 0-8 3.578125-8 8v8c-4.425781 0-8 3.585937-8 8 0 4.425781 3.574219 8 8 8v8c0 4.417969 3.574219 8 8 8 4.421875 0 8-3.582031 8-8v-8c4.421875 0 8-3.574219 8-8 0-4.414063-3.585937-8-8-8zm0 0" fill="#5d9cec"/><path d="m47.800781 432.015625v-8c0-4.421875-3.578125-8-8-8-4.425781 0-8 3.578125-8 8v8c-4.425781 0-8 3.578125-8 8 0 4.425781 3.574219 8 8 8v8c0 4.425781 3.574219 8 8 8 4.421875 0 8-3.574219 8-8v-8c4.421875 0 8-3.574219 8-8 0-4.421875-3.585937-8-8-8zm0 0" fill="#ed5565"/><path d="m63.800781 40.015625v-16c0-4.421875-3.578125-8-8-8-4.425781 0-8 3.578125-8 8v16c-4.425781 0-8 3.585937-8 8 0 4.425781 3.574219 8 8 8v16c0 4.417969 3.574219 8 8 8 4.421875 0 8-3.582031 8-8v-16c4.421875 0 8-3.574219 8-8 0-4.414063-3.585937-8-8-8zm0 0" fill="#48cfad"/><path d="m479.800781 440.015625v-16c0-4.421875-3.578125-8-8-8-4.425781 0-8 3.578125-8 8v16c-4.425781 0-8 3.578125-8 8 0 4.425781 3.574219 8 8 8v16c0 4.425781 3.574219 8 8 8 4.421875 0 8-3.574219 8-8v-16c4.421875 0 8-3.574219 8-8 0-4.421875-3.585937-8-8-8zm0 0" fill="#ffce54"/><path d="m360.03125 32.015625c-4.421875 0-8.03125-3.582031-8.03125-8 0-4.421875 3.527344-8 7.953125-8h.078125c4.425781 0 8 3.578125 8 8 0 4.417969-3.574219 8-8 8zm0 0" fill="#ed5565"/><path d="m456.03125 192.015625c-4.421875 0-8.03125-3.574219-8.03125-8 0-4.414063 3.527344-8 7.953125-8h.078125c4.425781 0 8 3.585937 8 8 0 4.425781-3.574219 8-8 8zm0 0" fill="#a0d468"/><path d="m8.03125 192.015625c-4.421875 0-8.03125-3.582031-8.03125-8 0-4.421875 3.527344-8 7.953125-8h.078125c4.425781 0 8 3.578125 8 8 0 4.417969-3.574219 8-8 8zm0 0" fill="#a0d468"/><path d="m504.03125 328.015625c-4.421875 0-8.03125-3.574219-8.03125-8 0-4.421875 3.527344-8 7.953125-8h.078125c4.425781 0 8 3.578125 8 8 0 4.425781-3.574219 8-8 8zm0 0" fill="#4fc1e9"/><path d="m56.03125 320.015625c-4.421875 0-8.03125-3.574219-8.03125-8 0-4.421875 3.527344-8 7.953125-8h.078125c4.425781 0 8 3.578125 8 8 0 4.425781-3.574219 8-8 8zm0 0" fill="#ec87c0"/><path d="m304.03125 480.015625c-4.421875 0-8.03125-3.574219-8.03125-8 0-4.421875 3.527344-8 7.953125-8h.078125c4.425781 0 8 3.578125 8 8 0 4.425781-3.574219 8-8 8zm0 0" fill="#4fc1e9"/><path d="m208.03125 16.015625c-4.421875 0-8.03125-3.574219-8.03125-8 0-4.414063 3.527344-8 7.953125-8h.078125c4.425781 0 8 3.585937 8 8 0 4.425781-3.574219 8-8 8zm0 0" fill="#ec87c0"/><path d="m143.800781 272c-26.511719 0-48 21.488281-48 48 0 2.734375.277344 5.390625.71875 8 3.816407-22.695312 23.503907-40 47.28125-40v.015625h24v-16.015625zm0 0" fill="#434a54"/><path d="m143.800781 200.015625c-26.511719 0-48 21.488281-48 48 0 2.738281.277344 5.390625.71875 8 3.816407-22.695313 23.503907-40 47.28125-40v.015625h24v-16.015625zm0 0" fill="#434a54"/><path d="m143.800781 128.015625c-26.511719 0-48 21.488281-48 48 0 2.738281.277344 5.390625.71875 8 3.816407-22.695313 23.503907-40 47.28125-40v.015625h24v-16.015625zm0 0" fill="#434a54"/><path d="m143.816406 424.015625c-17.65625 0-32.015625-14.351563-32.015625-32h-16c0 26.464844 21.527344 47.992187 48 48h24v-16zm0 0" fill="#434a54"/><path d="m231.800781 440.015625v16l-24-8-24 8v-64h48zm0 0" fill="#ed5565"/></svg>